<svg width="21" height="25" viewBox="0 0 21 25" fill="none" xmlns="http://www.w3.org/2000/svg">
<path d="M17.1332 13.072C17.1025 9.99409 19.6431 8.51786 19.7567 8.44328C18.3289 6.35561 16.1044 6.06916 15.3127 6.03656C13.4211 5.84444 11.6199 7.15077 10.6603 7.15077C9.7026 7.15077 8.21995 6.06471 6.65136 6.09237C4.5879 6.12299 2.68594 7.29252 1.62408 9.13966C-0.518904 12.8572 1.07586 18.3665 3.16402 21.3836C4.18489 22.8584 5.40232 24.5179 6.99956 24.4571C8.539 24.3964 9.11982 23.4614 10.9808 23.4614C12.8418 23.4614 13.3643 24.4571 14.9926 24.426C16.6482 24.3959 17.6977 22.9231 18.7101 21.4424C19.8821 19.7291 20.3647 18.0701 20.3933 17.9862C20.3573 17.9694 17.1662 16.747 17.1332 13.072Z" fill="white"/>
<path d="M14.0735 4.03977C14.9206 3.01149 15.4945 1.58268 15.3384 0.160278C14.116 0.209667 12.6363 0.972724 11.7587 2.00001C10.9724 2.91173 10.2849 4.36327 10.4691 5.75998C11.8328 5.86567 13.2236 5.06607 14.0735 4.03977Z" fill="white"/>
</svg>
